# xmcd CD database file
#
# Track frame offsets:
#	150
#	11754
#	25291
#	38540
#	52183
#	65818
#	80265
#	94563
#	108514
#	124344
#	138438
#	152418
#	168661
#	180758
#	196020
#
# Disc length: 2843 seconds
#
# Revision: 0
# Processed by: cddbd v1.5.1PL2 Copyright (c) Steve Scherf et al.
# Submitted via: CDex 1.51
#
DISCID=bd0b190f
DTITLE=Various Artist - Classic Country Late 70's
DYEAR=1999
DGENRE=Country
TTITLE0=01-Johnny Paycheck- Take this job an shove it
TTITLE1=02-Waylon Jennings and Willie Nelson - Good Hearted Woman
TTITLE2=03-Crystal Gayle - Talking In Your Sleep
TTITLE3=04-Glen Campbell - Southern Nights
TTITLE4=05 - Dave and Sugar - Golden Tears
TTITLE5=06-Don Williams - Tulsa Time
TTITLE6=07-Freddy Fender - Wasted Days And Wasted Nights
TTITLE7=08-George Jones and Tammy Wynette - Golden ring
TTITLE8=09-The Oak Ridge Boys - Sail Away
TTITLE9=10-Loretta Lynn - She's Got You
TTITLE10=11-Charley Pride - Burgers and Fries 
TTITLE11=12-Ronnie Milsap - It Was Almost
TTITLE12=13-Charlie Rich - Rolling With the Flow
TTITLE13=14-Jessi Colter - I'm Not Lisa
TTITLE14=15-C.W. McCall - Convoy
EXTD=YEAR: 1999
EXTT0=
EXTT1=
EXTT2=
EXTT3=
EXTT4=
EXTT5=
EXTT6=
EXTT7=
EXTT8=
EXTT9=
EXTT10=
EXTT11=
EXTT12=
EXTT13=
EXTT14=
PLAYORDER=
